<?xml version="1.0" standalone="no"?>
<!DOCTYPE svg PUBLIC "-//W3C//DTD SVG 20010904//EN"
 "http://www.w3.org/TR/2001/REC-SVG-20010904/DTD/svg10.dtd">
<svg version="1.0" xmlns="http://www.w3.org/2000/svg"
 width="300.000000pt" height="344.000000pt" viewBox="0 0 300.000000 344.000000"
 preserveAspectRatio="xMidYMid meet">
<metadata>
Created by potrace 1.10, written by Peter Selinger 2001-2011
</metadata>
<g transform="translate(0.000000,344.000000) scale(0.100000,-0.100000)"
fill="#ffffff" stroke="none">
<path d="M1102 2895 c-63 -19 -117 -60 -153 -116 -28 -44 -51 -129 -35 -129 4
0 37 28 74 63 90 84 126 110 195 137 31 12 57 26 57 30 0 5 -15 11 -32 15 -18
4 -40 8 -48 10 -8 2 -34 -3 -58 -10z"/>
<path d="M1501 2901 c-66 -12 -50 -37 39 -64 46 -14 68 -30 139 -101 l83 -84
52 23 c28 13 75 26 104 30 60 8 72 23 48 60 -25 38 -81 70 -191 109 -102 37
-180 44 -274 27z"/>
<path d="M1325 2839 c-49 -10 -110 -26 -135 -35 -63 -24 -142 -107 -171 -181
-42 -110 -36 -353 10 -353 9 0 50 21 91 48 167 106 290 129 456 88 86 -22 118
-12 149 46 17 33 18 42 7 94 -24 118 -79 188 -187 239 -38 19 -83 42 -100 53
-30 20 -31 20 -120 1z"/>
<path d="M2220 2703 c-34 -13 -26 -29 35 -65 79 -48 118 -93 151 -180 29 -76
32 -79 62 -71 23 6 42 54 42 107 0 51 -84 144 -165 181 -56 26 -103 36 -125
28z"/>
<path d="M1895 2661 c-87 -15 -135 -60 -121 -115 l7 -27 129 7 c126 7 130 6
182 -20 47 -24 62 -40 144 -159 50 -72 96 -132 104 -132 7 0 22 13 34 28 30
40 29 126 -2 189 -30 61 -103 142 -156 173 -74 43 -236 71 -321 56z"/>
<path d="M778 2478 c-92 -84 -160 -249 -142 -345 7 -36 61 -96 78 -86 64 38
96 91 96 159 0 61 14 76 64 69 40 -6 45 -5 65 23 25 36 28 112 7 182 -13 45
-13 45 -62 48 -47 2 -52 0 -106 -50z"/>
<path d="M1824 2441 c-49 -22 -80 -60 -95 -113 -14 -52 -4 -105 33 -179 24
-49 29 -68 24 -102 -3 -23 -9 -87 -12 -143 -6 -88 -4 -106 14 -146 17 -39 28
-49 77 -72 32 -14 74 -26 94 -26 86 0 221 99 261 192 29 67 53 227 46 296 -4
30 -13 70 -22 90 -9 20 -17 46 -20 57 -10 52 -98 126 -176 150 -71 21 -173 19
-224 -4z"/>
<path d="M1303 2352 c-160 -57 -253 -198 -253 -382 0 -110 39 -206 111 -279
72 -72 107 -85 244 -91 l120 -5 -34 -20 c-115 -67 -187 -159 -198 -254 -5 -42
-1 -59 21 -104 30 -63 73 -96 175 -134 91 -34 265 -44 343 -19 58 19 112 55
128 86 17 32 29 114 19 126 -5 7 -14 63 -20 125 -20 233 -44 257 -237 247 -55
-4 -99 -12 -120 -23 -18 -9 -36 -14 -40 -10 -7 6 12 25 69 70 70 55 111 164
112 295 0 149 -51 263 -146 327 -88 59 -205 77 -294 45z"/>
<path d="M2466 2324 c-3 -9 -6 -27 -6 -40 0 -34 -44 -102 -96 -147 -26 -23
-41 -43 -38 -52 9 -22 64 -53 113 -64 l43 -9 20 46 c17 38 20 59 15 131 -7
116 -33 183 -51 135z"/>
<path d="M280 2238 c0 -8 34 -56 75 -107 41 -51 76 -95 79 -99 2 -4 -53 -8
-123 -9 -69 -1 -168 -4 -218 -8 l-93 -7 1 -81 1 -82 104 -94 c57 -51 104 -97
104 -102 0 -4 -13 -16 -30 -26 -16 -9 -30 -20 -30 -24 0 -4 27 -31 61 -60 33
-30 100 -91 149 -137 92 -86 157 -122 222 -125 32 -1 35 -3 27 -19 -5 -10 -20
-18 -32 -18 -64 -1 -167 -83 -207 -166 -23 -46 -44 -172 -33 -199 5 -14 8 -14
27 3 45 42 235 116 252 99 3 -3 -4 -53 -17 -111 -12 -58 -20 -108 -18 -111 4
-3 132 27 345 81 18 5 20 2 16 -25 -2 -17 -3 -31 -1 -31 2 0 38 9 79 20 41 11
78 20 82 20 4 0 -2 -26 -13 -57 -37 -107 -25 -225 32 -304 20 -28 22 -29 39
-14 10 9 32 42 48 74 17 31 59 91 92 132 34 40 76 104 94 141 l33 68 29 -31
c38 -41 181 -134 219 -143 17 -4 44 -18 62 -32 40 -31 51 -30 59 2 9 35 30 29
184 -56 160 -87 167 -89 181 -53 26 64 2 260 -48 389 -5 14 -3 16 13 10 52
-22 105 -28 294 -36 113 -4 213 -11 223 -15 11 -5 17 -3 17 6 0 17 -61 149
-69 149 -7 0 -91 78 -91 84 0 4 193 81 228 91 22 6 23 8 7 25 -9 10 -14 23
-11 29 3 5 57 26 119 46 61 21 122 44 135 51 38 25 28 51 -39 94 -121 78 -395
141 -413 94 -22 -57 7 -109 80 -143 86 -41 14 -53 -101 -17 -15 5 -25 -2 -42
-28 -12 -19 -47 -49 -77 -67 -52 -31 -70 -55 -78 -104 -3 -17 -16 -22 -92 -32
-73 -11 -105 -22 -175 -59 -129 -69 -138 -79 -143 -175 -3 -44 -9 -84 -14 -89
-13 -13 -54 16 -54 38 0 9 -8 38 -17 65 l-17 47 -60 0 c-34 1 -88 7 -121 15
-72 18 -145 19 -178 4 -21 -9 -36 -4 -111 39 -83 47 -91 50 -144 45 -40 -4
-69 0 -96 11 -21 9 -44 16 -50 16 -6 0 -34 -29 -61 -65 -27 -36 -55 -65 -62
-65 -15 0 -17 12 -4 25 18 18 39 121 32 155 -9 46 -77 88 -143 89 -53 1 -66
13 -48 46 18 34 -10 121 -61 185 -47 59 -70 108 -78 165 l-6 40 -86 5 c-58 3
-94 11 -112 23 -48 31 -37 38 78 50 102 11 157 70 157 166 0 88 -86 261 -131
261 -12 0 -181 30 -208 37 -16 3 -23 1 -23 -9z"/>
<path d="M2559 2193 c-21 -53 -33 -267 -20 -343 7 -39 18 -70 24 -70 24 0 78
41 97 72 23 38 25 91 9 221 -9 69 -17 95 -36 118 -31 37 -60 38 -74 2z"/>
<path d="M932 2170 c-13 -6 -43 -23 -67 -40 -24 -16 -48 -30 -53 -30 -18 0
-61 -87 -77 -152 -54 -229 39 -507 213 -632 114 -83 257 -69 298 30 29 70 14
127 -66 234 -27 37 -56 83 -64 102 -8 19 -22 40 -30 47 -23 19 -64 97 -81 154
-21 72 -19 120 11 205 21 60 23 76 12 83 -17 11 -67 10 -96 -1z"/>
<path d="M2292 2018 c-7 -7 -12 -39 -12 -72 0 -107 -60 -198 -181 -279 -85
-56 -94 -69 -90 -130 6 -76 5 -104 -4 -184 -8 -72 -8 -72 24 -104 30 -30 35
-31 90 -26 69 6 156 48 225 109 60 53 84 89 126 198 29 73 34 97 34 175 1 142
-38 225 -142 303 -34 25 -52 28 -70 10z"/>
</g>
</svg>
